<svg xmlns:xlink="http://www.w3.org/1999/xlink" xmlns="http://www.w3.org/2000/svg" width="87" height="87" viewBox="-15 -10 550 550" preserveAspectRatio="xMidYMid meet" class="block"><path d="M506 205l-250 279l-250 -279l114 -177h272zM187 150l-2 2l-13 11l-25 24q-10 11 -19 19l-1 2q-5 4 -14 11l-3 2l21 -9l22 -11q20 -12 39 -29l4 -3q8 -8 18 -19l12 -16l-7 2q-9 2 -18 6zM328 230v-8v0l-2 -16q-2 -7 -4 -13q-8 24 -22 45l11 16q-8 22 -25 36l-22 -8 q-13 13 -28 23l-1 1q-8 5 -16 9q11 3 23 3l15 -2l13 -4l11 -5q5 -3 9 -6l10 -9q6 -5 9 -10l7 -10l6 -13l4 -15zM309 169q-3 -4 -7.5 -8.5t-10.5 -9.5q-21 -16 -48 -18l-7 12l15 22l-8 25l-27 9l-18 -14l-9 8l20 15l-1 30l-21 15l-24 -8q-4 -17 -1 -34q-6 3 -13 6 q-2 33 17 60q7 11 17 19q4 3 9 6l1 1l-3 2q-18 13 -36 22l20 -6l18 -7l25 -13q17 -11 32 -23l9 -9q19 -17 33 -38q7 -11 13 -22l7 -15q3 -8 6 -15q-3 -5 -6 -9zM203 297q23 -18 39 -37v-1l-27 -9l-21 15v26l1 1q5 3 8 5zM273 220h1h1q15 -22 23 -46q-5 -6 -11 -12l-25 8 l-8 26l17 24h2zM356 92l-24 -24h-179l-32 33h226zM390 281v-153l-24 -25l-8 10v202z" fill="#161A4F"></path></svg>