<svg xmlns:xlink="http://www.w3.org/1999/xlink" xmlns="http://www.w3.org/2000/svg" width="87" height="87" viewBox="-15 -10 550 550" preserveAspectRatio="xMidYMid meet" class="block"><path d="M0,0M120.0001043,28 C120.0001043,28,392.0001043,28,392.0001043,28 C392.0001043,28,506.0001043,205,506.0001043,205 C506.0001043,205,256.0001043,484,256.0001043,484 C256.0001043,484,6.0001043,205,6.0001043,205 C6.0001043,205,120.0001043,28,120.0001043,28Z M309.5001043,110.69993084 C307.6001043,108.09993084,306.2001043,105.19993084,305.2001043,102.19993084 C300.2001043,109.89993084,293.7001043,116.39993084,285.9001043,121.29993084 C292.9001043,125.39993084,298.8001043,131.29993084,303.0001043,138.29993084 C307.2001043,130.49993084,314.1001043,124.49993084,322.3001043,121.29993084 C317.2001043,118.89993084,312.8001043,115.29993084,309.5001043,110.69993084Z M119.0001043,289 C132.8001043,294.09993084,143.7001043,305,149.0001043,318.69993084 C155.9001043,306.09993084,166.3001043,295.79993084,179.0001043,289 C165.9001043,283.79993084,155.2001043,274,149.0001043,261.39993084 C146.3001043,266.89993084,142.6001043,272,138.3001043,276.29993084 C132.8001043,281.79993084,126.2001043,286.09993084,119.0001043,289Z M183.2001043,66.19993084 C133.2001043,65,89.9001043,105.89993084,89.1001043,157.39993084 C91.6001043,206,132.6001043,244.39993084,181.1001043,244.39993084 C230.4001043,244.39993084,271.7001043,204.69993084,273.1001043,155.29993084 C271.2001043,106.29993084,230.9001043,67.29993084,183.2001043,66.19993084Z M234.6001043,269.89993084 C234.6001043,269.89993084,234.7001043,269.89993084,234.7001043,269.89993084 C259.2001043,230.19993084,303.1001043,206.19993084,350.2001043,206.19993084 C350.2001043,206.19993084,350.2001043,252.89993084,350.2001043,252.89993084 C374.4001043,229.59993084,398.7001043,206.19993084,422.9001043,182.89993084 C398.7001043,159.59993084,374.4001043,136.19993084,350.2001043,112.89993084 C350.2001043,112.89993084,350.2001043,159.59993084,350.2001043,159.59993084 C329.9001043,158,310.1001043,161.49993084,292.4001043,170.19993084 C286.4001043,173.19993084,280.6001043,176.69993084,275.3001043,180.79993084 C270.8001043,195.89993084,262.8001043,209.69993084,251.8001043,221.09993084 C240.5001043,232.79993084,226.5001043,241.59993084,211.1001043,246.59993084 C199.3001043,274.09993084,195.5001043,304.19993084,200.4001043,333.59993084 C204.0001043,354.79993084,212.0001043,375.09993084,223.9001043,393 C223.9001043,393,226.0001043,393,226.0001043,393 C208.7001043,353.09993084,211.6001043,307.09993084,234.6001043,269.89993084Z M309.5001043,335.69993084 C309.5001043,335.69993084,309.4001043,335.79993084,309.4001043,335.79993084 C321.1001043,312.79993084,339.9001043,294.19993084,362.9001043,282.69993084 C340.6001043,271.19993084,322.0001043,253.49993084,309.4001043,231.79993084 C298.5001043,254,280.4001043,271.89993084,258.1001043,282.69993084 C270.2001043,288.29993084,281.1001043,296.19993084,290.2001043,306 C298.3001043,314.69993084,304.9001043,324.79993084,309.5001043,335.69993084Z M256.0001043,159.49993084 C256.0001043,159.49993084,256.0001043,159.39993084,256.0001043,159.39993084 C254.4001043,173.89993084,249.2001043,187.69993084,241.0001043,199.69993084 C241.0001043,199.69993084,241.0001043,193.29993084,241.0001043,193.29993084 C241.0001043,193.29993084,211.0001043,193.29993084,211.0001043,193.29993084 C208.4001043,204.19993084,203.3001043,214.39993084,196.0001043,223 C196.0001043,223,200.3001043,227.19993084,200.3001043,227.19993084 C200.3001043,227.19993084,159.6001043,227.19993084,159.6001043,227.19993084 C159.6001043,227.19993084,166.0001043,223,166.0001043,223 C158.2001043,215.59993084,152.9001043,206,151.0001043,195.39993084 C151.0001043,195.39993084,121.0001043,191.19993084,121.0001043,191.19993084 C121.0001043,191.19993084,118.9001043,197.59993084,118.9001043,197.59993084 C112.5001043,185,108.2001043,171.29993084,106.1001043,157.29993084 C106.1001043,157.29993084,110.4001043,159.39993084,110.4001043,159.39993084 C114.8001043,150.19993084,121.5001043,142.19993084,129.7001043,136.09993084 C127.2001043,127.09993084,126.5001043,117.69993084,127.6001043,108.49993084 C127.6001043,108.49993084,121.2001043,108.49993084,121.2001043,108.49993084 C121.2001043,108.49993084,155.4001043,83,155.4001043,83 C155.4001043,83,155.4001043,89.39993084,155.4001043,89.39993084 C165.3001043,90,174.6001043,94.59993084,181.1001043,102.09993084 C188.3001043,94.59993084,198.5001043,90.69993084,208.9001043,91.49993084 C208.9001043,91.49993084,208.9001043,85.09993084,208.9001043,85.09993084 C220.3001043,94.29993084,231.7001043,103.49993084,243.1001043,112.69993084 C240.2001043,112,237.4001043,111.29993084,234.5001043,110.59993084 C234.5001043,110.59993084,232.4001043,138.19993084,232.4001043,138.19993084 C241.0001043,144.79993084,247.7001043,153.59993084,251.7001043,163.69993084 C253.1001043,162.29993084,254.6001043,160.89993084,256.0001043,159.49993084Z M200.4001043,178.59993084 C200.4001043,178.59993084,200.5001043,178.59993084,200.5001043,178.59993084 C204.7001043,166.49993084,209.0001043,154.49993084,213.3001043,142.49993084 C213.3001043,142.49993084,181.2001043,119.19993084,181.2001043,119.19993084 C181.2001043,119.19993084,149.1001043,142.49993084,149.1001043,142.49993084 C153.3001043,154.59993084,157.6001043,166.59993084,161.9001043,178.59993084 C161.9001043,178.59993084,200.4001043,178.59993084,200.4001043,178.59993084Z" fill="#161A4F"></path></svg>