<svg xmlns:xlink="http://www.w3.org/1999/xlink" xmlns="http://www.w3.org/2000/svg" width="87" height="87" viewBox="-15 -10 550 550" preserveAspectRatio="xMidYMid meet" class="block"><path d="M506 205l-250 279l-250 -279l114 -177h272zM201 177l-65 73v55h19v40l18 -107v67h28v-128zM376 305v-55l-65 -73v128h28v-67l19 107v-40h18zM256 44h-1q-22 27 -33.5 59t-11.5 66v118l37 36h4v-89h10v89h4l37 -36v-117q0 -34 -12 -67t-34 -59zM279 127q-8 -13 -23 -13 t-23 12q0 -15 7 -25.5t16 -10.5t16 10.5t7 25.5v1zM256 400l34 -35v0q10 -12 12 -27.5t-6 -28.5q-2 13 -11 23l-29 31l-28 -31q-10 -10 -12 -23q-8 13 -6 28.5t13 27.5z" fill="#161A4F"></path></svg>