<svg xmlns:xlink="http://www.w3.org/1999/xlink" xmlns="http://www.w3.org/2000/svg" width="87" height="87" viewBox="-15 -10 550 550" preserveAspectRatio="xMidYMid meet" class="block"><path d="M512 256l-256 -256l-256 256l256 256zM398 292v0q6 0 13 -1l5 -13l-8 -12l-16 -1l-9 11l2 7l-18 2q-10 -9 -14 -22h7l4 8l14 1l9 -11l-4 -15l-13 -6l-12 8v7l-61 -2l54 -5v-2q1 -14 10 -26l7 1l4 13l13 5l14 -8v-14l-11 -9q-4 1 -8 3l-65 -1l80 -10q5 -1 9 0q20 1 34 16 t12.5 35.5t-16.5 34t-36 12.5l-72 -9zM405 224v0v7l13 10l13 -4l5 -13q-7 -10 -18 -15l-12 8zM413 262q1 0 1 1l7 11l14 1q8 -10 9 -22l-11 -9l-14 3zM362 365q-6 3 -13 3q-12 0 -20 -8l-56 -49l-69 -16l-62 62l-82 -74q6 -7 16 -7q6 0 12 3l48 30l70 -107l-95 5l-3 -18 l146 -27l30 38l-41 56l59 28l60 81v0zM307 172q-7 7 -15 7.5t-15 -6.5q-18 -18 -14 -43q1 -10 9.5 -16t19 -5.5t18 7t8.5 17.5v4q1 21 -11 35z" fill="#161A4F"></path></svg>