<svg xmlns:xlink="http://www.w3.org/1999/xlink" xmlns="http://www.w3.org/2000/svg" width="87" height="87" viewBox="-15 -10 550 550" preserveAspectRatio="xMidYMid meet" class="block"><path d="M256 0l256 256l-256 256l-256 -256zM328 279h1l7 1v16l-84 19v47q-11 4 -17.5 14t-6.5 22q0 16 11 27t27 11t27 -11t11 -27q0 -12 -6.5 -22t-17.5 -14v-20l158 -44v-29l-242 -41v-16l84 -19v-63h31l-45 -54l-45 54h31v36l-158 44v29l112 19v0zM253 398q0 5 4 9t9 4t9 -4 t4 -9t-4 -9t-9 -4t-9 3.5t-4 9.5zM380 187l22 -22l-15 -14l-22 21l-21 -21l-15 14l22 22l-22 21l15 14l21 -21l22 21l15 -14zM207 344l-22 -22l22 -21l-15 -14l-21 21l-22 -21l-14 14l21 21l-21 22l14 14l22 -21l21 21z" fill="#161A4F"></path></svg>