<svg xmlns:xlink="http://www.w3.org/1999/xlink" xmlns="http://www.w3.org/2000/svg" width="87" height="87" viewBox="-15 -10 550 550" preserveAspectRatio="xMidYMid meet" class="block"><path d="M512 256l-256 -256l-256 256l256 256zM190 217q-3 10 -15 15.5t-28 3.5q-13 -1 -20 -12t-3.5 -23t15 -17t24.5 1q33 13 27 32zM289 287q-7 10 -19 13q-5 2 -11 2l-8 -1q-5 0 -9 -1l-50 -13l-24 38l9 49l-13 6l-24 -50l31 -79q4 -11 14.5 -15.5t21.5 -0.5l19 11 q16 9 32 14l8 -51q2 -11 11 -18l70 -61q2 10 -3 18l-49 62v60q-1 9 -6 17zM363 383q-9 -6 -11 -17l-12 -66l-60 7q12 -3 19 -13q5 -7 6 -17l1 -9l46 2q8 0 13 5.5t5 13.5l-5 95zM268 379l-52 -22l-21 -56l33 9l5 25l39 29zM217 164q-11 -11 -11 -26.5t11 -26.5t26.5 -11 t26.5 11t11 26.5t-11 26.5v0q-11 11 -26.5 11t-26.5 -11zM220 143q7 -1 10 -1l9 9l-1 10l-10 5q-9 -4 -13 -13zM273 123q4 9 3 18v1l-9 4l-10 -5l-2 -12l8 -7zM239 105q10 -1 19 3l1 10l-7 8l-12 -2l-5 -10zM244 151q6 -3 11 -5l9 5l2 10q-7 7 -16 8l-8 -7zM219 139l-8 -8h1 q1 -9 8 -16l10 2l5 9l-5 11z" fill="#161A4F"></path></svg>