<svg xmlns:xlink="http://www.w3.org/1999/xlink" xmlns="http://www.w3.org/2000/svg" width="87" height="87" viewBox="-15 -10 550 550" preserveAspectRatio="xMidYMid meet" class="block"><path d="M256 0l256 256l-256 256l-256 -256zM144 353l114 114l114 -114h-228zM399 259q10 -42 -11 -78.5t-62 -48.5q-27 -7 -53.5 0.5t-46 26.5t-26.5 46q-12 41 9.5 78.5t62.5 48t78 -10.5t48 -62h1zM197 300q-13 7 -44 9h-28q16 3 71 14l35 7q-21 -9 -34 -30zM274 260 q-4 4 -13 10l-11 8l2 30q23 14 49 13l16 -24l-11 -28zM330 292l28 7l-1 1q9 -7 17 -19t11 -23l-19 -22l-29 1l-18 27zM185 282v0l-1 -1q-4 -12 -6 -24q-20 8 -59 10q-20 1 -35 0v0q34 8 58 11q18 2 43 4v0zM212 211q-6 27 2 51l29 6l23 -18l-2 -33l-25 -16zM175 238 q0 -11 2 -26q-18 6 -50 9q-23 1 -51 2h-24q75 15 123 15zM382 198q-10 -24 -32 -40l-28 10l-7 29l22 26l29 -1zM310 165q-4 -4 -10 -13l-8 -10q-28 3 -48 18l2 30l25 16l31 -12z" fill="#161A4F"></path></svg>